<svg xmlns="http://www.w3.org/2000/svg" viewBox="0 0 43.87 38.46"><defs><style>.cls-1{fill:#282828;stroke:#282828;stroke-width:2px;fill-rule:evenodd;}</style></defs><g id="Слой_2" data-name="Слой 2"><g id="Слой_1-2" data-name="Слой 1"><path class="cls-1" d="M42,20.36,22.21,1.82,1.9,20.36l-.47-.49L22,1.1a.33.33,0,0,1,.47,0l20,18.77ZM7.65,36.77h9.87V26.93a.36.36,0,0,1,.1-.25.35.35,0,0,1,.24-.1h8.52a.35.35,0,0,1,.24.1.36.36,0,0,1,.1.25v9.84H36.77V20.21h.69V37.12a.34.34,0,0,1-.11.24.35.35,0,0,1-.24.1H26.38a.35.35,0,0,1-.24-.1.33.33,0,0,1-.1-.24V27.27H18.2v9.85a.33.33,0,0,1-.1.24.35.35,0,0,1-.24.1H7.31a.35.35,0,0,1-.24-.1.33.33,0,0,1-.1-.24V20.21h.68Z"/></g></g></svg>